<?xml version="1.0" encoding="utf-8"?>
<!-- Generator: Adobe Illustrator 21.0.2, SVG Export Plug-In . SVG Version: 6.00 Build 0)  -->
<svg version="1.1" xmlns="http://www.w3.org/2000/svg" xmlns:xlink="http://www.w3.org/1999/xlink" x="0px" y="0px" width="2000px"
	 height="1872px" viewBox="0 0 2000 1872" enable-background="new 0 0 2000 1872" xml:space="preserve">
<g id="BG">
	<g>
		<g>
			<rect x="0" fill="#D7E4F5" width="2000" height="1872"/>
		</g>
		<g>
			<path fill="#D7E4F5" d="M1233.5,12.1C810.2,12.1,467,355.3,467,778.6s343.2,766.5,766.5,766.5S2000,1201.9,2000,778.6
				S1656.8,12.1,1233.5,12.1z M1233.5,1515.1c-406.7,0-736.4-329.7-736.4-736.4c0-406.7,329.7-736.4,736.4-736.4
				S1970,371.9,1970,778.6C1970,1185.3,1640.2,1515.1,1233.5,1515.1z"/>
			<path fill="#DFE7E4" d="M1233.5,42.2c-406.7,0-736.4,329.7-736.4,736.4c0,406.7,329.7,736.4,736.4,736.4S1970,1185.3,1970,778.6
				C1970,371.9,1640.2,42.2,1233.5,42.2z M1233.5,1485c-390.1,0-706.4-316.3-706.4-706.4c0-390.1,316.3-706.4,706.4-706.4
				s706.4,316.3,706.4,706.4C1939.9,1168.7,1623.6,1485,1233.5,1485z"/>
			<path fill="#E7E9D5" d="M527.1,778.6c0,390.1,316.3,706.4,706.4,706.4s706.4-316.3,706.4-706.4c0-390.1-316.3-706.4-706.4-706.4
				S527.1,388.5,527.1,778.6z M1909.9,778.6c0,373.5-302.8,676.3-676.3,676.3s-676.3-302.8-676.3-676.3S860,102.3,1233.5,102.3
				S1909.9,405.1,1909.9,778.6z"/>
			<path fill="#EDECC6" d="M557.2,778.6c0,373.5,302.8,676.3,676.3,676.3s676.3-302.8,676.3-676.3S1607,102.3,1233.5,102.3
				S557.2,405.1,557.2,778.6z M1879.8,778.6c0,356.9-289.4,646.3-646.3,646.3s-646.3-289.4-646.3-646.3s289.4-646.3,646.3-646.3
				S1879.8,421.7,1879.8,778.6z"/>
			<path fill="#F4EFB6" d="M587.2,778.6c0,356.9,289.4,646.3,646.3,646.3s646.3-289.4,646.3-646.3s-289.4-646.3-646.3-646.3
				S587.2,421.7,587.2,778.6z M1849.8,778.6c0,340.3-275.9,616.2-616.2,616.2S617.3,1119,617.3,778.6s275.9-616.2,616.2-616.2
				S1849.8,438.3,1849.8,778.6z"/>
			<path fill="#FBF2A6" d="M617.3,778.6c0,340.3,275.9,616.2,616.2,616.2s616.2-275.9,616.2-616.2s-275.9-616.2-616.2-616.2
				S617.3,438.3,617.3,778.6z M1819.7,778.6c0,323.7-262.4,586.2-586.2,586.2s-586.2-262.4-586.2-586.2s262.4-586.2,586.2-586.2
				S1819.7,454.9,1819.7,778.6z"/>
			<path fill="#FFF795" d="M647.3,778.6c0,323.7,262.4,586.2,586.2,586.2s586.2-262.4,586.2-586.2s-262.4-586.2-586.2-586.2
				S647.3,454.9,647.3,778.6z M1775.7,778.6c0,299.4-242.7,542.2-542.2,542.2S691.4,1078,691.4,778.6s242.7-542.2,542.2-542.2
				S1775.7,479.2,1775.7,778.6z"/>
			<path fill="#FFE581" d="M691.4,778.6c0,299.4,242.7,542.2,542.2,542.2s542.2-242.7,542.2-542.2s-242.7-542.2-542.2-542.2
				S691.4,479.2,691.4,778.6z M1731.6,778.6c0,275.1-223,498.1-498.1,498.1s-498.1-223-498.1-498.1s223-498.1,498.1-498.1
				S1731.6,503.5,1731.6,778.6z"/>
			<path fill="#FED66D" d="M735.4,778.6c0,275.1,223,498.1,498.1,498.1s498.1-223,498.1-498.1s-223-498.1-498.1-498.1
				S735.4,503.5,735.4,778.6z M1687.6,778.6c0,250.8-203.3,454.1-454.1,454.1s-454.1-203.3-454.1-454.1s203.3-454.1,454.1-454.1
				S1687.6,527.8,1687.6,778.6z"/>
			<path fill="#FBC759" d="M779.4,778.6c0,250.8,203.3,454.1,454.1,454.1s454.1-203.3,454.1-454.1s-203.3-454.1-454.1-454.1
				S779.4,527.8,779.4,778.6z M1643.5,778.6c0,226.5-183.6,410-410,410s-410-183.6-410-410s183.6-410,410-410
				S1643.5,552.2,1643.5,778.6z"/>
			<path fill="#F8B944" d="M823.5,778.6c0,226.5,183.6,410,410,410s410-183.6,410-410s-183.6-410-410-410S823.5,552.2,823.5,778.6z
				 M1599.5,778.6c0,202.1-163.9,366-366,366s-366-163.9-366-366s163.9-366,366-366S1599.5,576.5,1599.5,778.6z"/>
			<path fill="#F5AA30" d="M867.5,778.6c0,202.1,163.9,366,366,366s366-163.9,366-366s-163.9-366-366-366S867.5,576.5,867.5,778.6z
				 M1555.5,778.6c0,177.8-144.1,322-322,322s-322-144.1-322-322s144.1-322,322-322S1555.5,600.8,1555.5,778.6z"/>
			<circle fill="#F29C1F" cx="1233.5" cy="778.6" r="322"/>
		</g>
		<g>
			<rect x="0" y="711.9" fill="#FFF795" width="2000" height="26.6"/>
			<polygon fill="#FCF49D" points="0,752 0,765.1 2000,765.1 2000,752 2000,738.5 0,738.5 			"/>
			<rect x="0" y="765.1" fill="#F6F2A5" width="2000" height="26.6"/>
			<rect x="0" y="791.8" fill="#F0F1AD" width="2000" height="26.6"/>
			<polygon fill="#EAEFB5" points="0,838.2 0,845 2000,845 2000,838.2 2000,818.4 0,818.4 			"/>
			<rect x="0" y="845" fill="#E3EDBC" width="2000" height="26.6"/>
			<rect x="0" y="871.6" fill="#DDECC4" width="2000" height="26.6"/>
			<polygon fill="#D6EACB" points="0,924.3 0,924.9 2000,924.9 2000,924.3 2000,898.2 0,898.2 			"/>
			<rect x="0" y="924.9" fill="#D0E9D2" width="2000" height="26.6"/>
			<rect x="0" y="951.5" fill="#C9E7D9" width="2000" height="26.6"/>
			<rect x="0" y="978.1" fill="#C2E5E0" width="2000" height="26.6"/>
			<polygon fill="#BBE4E7" points="0,1010.5 0,1031.3 2000,1031.3 2000,1010.5 2000,1004.7 0,1004.7 			"/>
			<rect x="0" y="1031.3" fill="#B4E2EE" width="2000" height="26.6"/>
			<polygon fill="#ACE0F5" points="0,1096.6 0,1182.8 0,1268.9 0,1355.1 0,1441.2 0,1527.4 0,1613.5 0,1699.7 0,1785.8 0,1872 
				2000,1872 2000,1785.8 2000,1699.7 2000,1613.5 2000,1527.4 2000,1441.2 2000,1355.1 2000,1268.9 2000,1182.8 2000,1096.6 
				2000,1058 0,1058 			"/>
		</g>
		<g>
			<rect x="0" y="751.5" fill="#FFFFFF" width="2000" height="1"/>
			<rect x="0" y="806.9" fill="#FFFFFF" width="2000" height="1"/>
			<rect x="0" y="862.3" fill="#FFFFFF" width="2000" height="1"/>
			<rect x="0" y="917.7" fill="#FFFFFF" width="2000" height="1"/>
			<rect x="0" y="973" fill="#FFFFFF" width="2000" height="1"/>
			<rect x="0" y="1028.4" fill="#FFFFFF" width="2000" height="1"/>
			<rect x="0" y="1083.8" fill="#FFFFFF" width="2000" height="1"/>
			<rect x="0" y="1139.2" fill="#FFFFFF" width="2000" height="1"/>
			<rect x="0" y="1194.6" fill="#FFFFFF" width="2000" height="1"/>
			<rect x="0" y="1250" fill="#FFFFFF" width="2000" height="1"/>
			<rect x="0" y="1305.4" fill="#FFFFFF" width="2000" height="1"/>
			<rect x="0" y="1360.8" fill="#FFFFFF" width="2000" height="1"/>
			<rect x="0" y="1416.1" fill="#FFFFFF" width="2000" height="1"/>
			<rect x="0" y="1471.5" fill="#FFFFFF" width="2000" height="1"/>
		</g>
		<g>
			<path fill="#FEC67D" d="M0,1872h2000v-17.9c-55.7-19-1971.5-11.3-2000-39.5V1872z"/>
			<path fill="#FECA84" d="M0,1814.6c28.5,28.2,1944.3,20.5,2000,39.5v-17.9c-111.4-38-1943.1-22.6-2000-79V1814.6z"/>
			<path fill="#FECD8B" d="M0,1757.3c56.9,56.4,1888.6,41,2000,79v-17.9c-167.1-57-1914.6-33.9-2000-118.5V1757.3z"/>
			<path fill="#FED092" d="M0,1699.9c85.4,84.5,1832.9,61.5,2000,118.5c0,0,0,0,0,0v-17.9c-222.8-75.9-1886.2-45.2-2000-158V1699.9z
				"/>
			<path fill="#FED39A" d="M0,1642.6c113.8,112.7,1777.2,82,2000,158v-17.9c-278.5-94.9-1857.7-56.5-2000-197.4V1642.6z"/>
			<path fill="#FED7A1" d="M0,1585.2c142.3,140.9,1721.5,102.5,2000,197.4v-17.9c-334.2-113.9-1829.3-67.9-2000-236.9V1585.2z"/>
			<path fill="#FEDAA9" d="M0,1527.8c170.7,169.1,1665.8,123,2000,236.9v-17.9C1610.1,1614,199.2,1667.7,0,1470.5V1527.8z"/>
			<path fill="#FEDDB1" d="M868.3,1373.7c5.3,0.8,10.6,1.5,15.9,2.3C878.9,1375.2,873.6,1374.4,868.3,1373.7z"/>
			<path fill="#FEDDB1" d="M867.2,1373.5c0.4,0.1,0.8,0.1,1.1,0.2c-5.2-0.7-10.5-1.5-15.7-2.2
				C857.5,1372.1,862.3,1372.8,867.2,1373.5z"/>
			<path fill="#FEDDB1" d="M817.6,1366.3c5.2,0.8,10.4,1.5,15.6,2.3C828,1367.9,822.8,1367.1,817.6,1366.3z"/>
			<path fill="#FEDDB1" d="M816.4,1366.2c0.4,0.1,0.8,0.1,1.3,0.2c-5.2-0.8-10.4-1.5-15.5-2.3
				C806.9,1364.7,811.6,1365.4,816.4,1366.2z"/>
			<path fill="#FEDDB1" d="M716.8,1350.6c-7.1-1.2-14.2-2.4-21.2-3.6c1.6,0.3,3.3,0.6,4.9,0.8
				C705.9,1348.7,711.3,1349.7,716.8,1350.6z"/>
			<path fill="#FEDDB1" d="M691.7,1346.3c-7-1.2-13.9-2.4-20.8-3.6C677.8,1343.9,684.8,1345.1,691.7,1346.3z"/>
			<path fill="#FEDDB1" d="M695.6,1347c-1.3-0.2-2.6-0.4-3.8-0.7C693,1346.5,694.3,1346.8,695.6,1347z"/>
			<path fill="#FEDDB1" d="M1217.9,1420.7c-6-0.8-11.9-1.6-17.9-2.4c-6-0.8-11.9-1.6-17.9-2.4
				C1194.1,1417.5,1206,1419.1,1217.9,1420.7z"/>
			<path fill="#FEDDB1" d="M1521.5,1467.4c-5.1-0.9-10.2-1.8-15.3-2.7c-6-1-12-2.1-18-3.1
				C1499.3,1463.5,1510.4,1465.4,1521.5,1467.4z"/>
			<path fill="#FEDDB1" d="M1343.8,1438.6c-10.9-1.6-21.8-3.2-32.6-4.8C1322,1435.4,1332.9,1437,1343.8,1438.6z"/>
			<path fill="#FEDDB1" d="M1289.8,1430.7c7.1,1,14.3,2,21.4,3.1c-1.1-0.2-2.3-0.3-3.4-0.5
				C1301.8,1432.5,1295.8,1431.6,1289.8,1430.7z"/>
			<path fill="#FEDDB1" d="M0,1470.5c199.2,197.3,1610.1,143.5,2000,276.4V1729c-445.6-151.9-1772.4-90.5-2000-315.9V1470.5z"/>
			<path fill="#FEDDB1" d="M742.3,1354.7c-1.3-0.2-2.7-0.4-4-0.6C739.7,1354.3,741,1354.5,742.3,1354.7z"/>
			<path fill="#FEDDB1" d="M742.3,1354.7c7.1,1.1,14.2,2.3,21.3,3.4C756.5,1357,749.4,1355.9,742.3,1354.7z"/>
			<path fill="#FEDDB1" d="M733.2,1353.2c1.7,0.3,3.4,0.6,5.2,0.8c-7.2-1.2-14.4-2.3-21.6-3.5
				C722.3,1351.5,727.7,1352.4,733.2,1353.2z"/>
			<path fill="#FEDDB1" d="M933.4,1382.8c-9.9-1.4-19.8-2.7-29.7-4.1c4.9,0.7,9.9,1.4,14.8,2
				C923.5,1381.4,928.4,1382.1,933.4,1382.8z"/>
			<path fill="#FEDDB1" d="M1022.8,1394.7c-11.7-1.5-23.3-3.1-35-4.6C999.5,1391.6,1011.1,1393.2,1022.8,1394.7z"/>
			<path fill="#FEDDB1" d="M1128.7,1408.7c-5.9-0.8-11.8-1.6-17.8-2.4c-5.2-0.7-10.4-1.4-15.6-2.1
				C1106.4,1405.8,1117.6,1407.2,1128.7,1408.7z"/>
			<path fill="#FEDDB1" d="M1182.2,1415.9c-6-0.8-11.9-1.6-17.8-2.4c-5.9-0.8-11.9-1.6-17.8-2.4
				C1158.4,1412.7,1170.3,1414.3,1182.2,1415.9z"/>
			<path fill="#FEDDB1" d="M113.4,1160.8c-4.4-2.7-8.7-5.5-13.1-8.4C104.7,1155.3,109,1158.1,113.4,1160.8z"/>
			<path fill="#FEDDB1" d="M246.4,1228.8c-5.5-2.3-10.9-4.6-16.2-6.9C235.6,1224.2,241,1226.5,246.4,1228.8z"/>
			<path fill="#FEDDB1" d="M545.6,1318.3c9.1,2,18.3,3.9,27.6,5.8C563.9,1322.2,554.8,1320.3,545.6,1318.3z"/>
			<path fill="#FEDDB1" d="M768.8,1358.9c9.4,1.5,18.8,2.9,28.2,4.3C787.6,1361.8,778.2,1360.4,768.8,1358.9z"/>
			<path fill="#FEDDB1" d="M456.1,1297.3c12.3,3.1,24.6,6.2,37.1,9.2C480.8,1303.5,468.4,1300.4,456.1,1297.3z"/>
			<path fill="#FEDDB1" d="M277.7,1241.3c5.4,2.1,10.8,4.1,16.3,6.1C288.6,1245.4,283.1,1243.4,277.7,1241.3z"/>
			<path fill="#FEDDB1" d="M203.5,1209.7c6.2,2.9,12.4,5.8,18.7,8.6C215.9,1215.5,209.7,1212.6,203.5,1209.7z"/>
			<path fill="#FEDDB1" d="M362.4,1270.7c-6.3-2-12.5-4-18.7-6C349.8,1266.8,356.1,1268.7,362.4,1270.7z"/>
			<path fill="#FEDDB1" d="M413,1285.7c11.7,3.3,23.6,6.5,35.6,9.6C436.6,1292.2,424.7,1289,413,1285.7z"/>
			<path fill="#FEDDB1" d="M591.9,1327.9c13.6,2.7,27.4,5.4,41.2,8C619.2,1333.3,605.5,1330.6,591.9,1327.9z"/>
			<path fill="#FEE0B9" d="M0,1413.1c227.6,225.4,1554.4,164,2000,315.9v-17.9C1498.7,1540.3,256.1,1609.4,0,1355.8V1413.1z"/>
			<path fill="#FEE4C0" d="M0,1355.8c256.1,253.6,1498.7,184.5,2000,355.4v-17.9C1443,1503.4,284.5,1580.2,0,1298.4V1355.8z"/>
			<path fill="#FEE7C8" d="M0,1298.4c284.5,281.8,1443,205,2000,394.9v-17.9C1387.3,1466.6,313,1551,0,1241.1V1298.4z"/>
			<path fill="#FEEBD0" d="M1521.6,1467.4c6.9,1.2,13.8,2.5,20.6,3.7C1535.4,1469.8,1528.5,1468.6,1521.6,1467.4z"/>
			<path fill="#FEEBD0" d="M1506.2,1464.7c5.1,0.9,10.3,1.8,15.4,2.7c0,0,0,0-0.1,0C1516.4,1466.5,1511.3,1465.6,1506.2,1464.7z"/>
			<path fill="#FEEBD0" d="M1253.8,1425.7c7.9,1.1,15.8,2.2,23.7,3.3c-1.9-0.3-3.8-0.5-5.8-0.8
				C1265.8,1427.3,1259.8,1426.5,1253.8,1425.7z"/>
			<path fill="#FEEBD0" d="M1307.8,1433.3c-6-0.9-12-1.7-18-2.6c-2-0.3-4-0.6-6-0.8C1291.8,1431,1299.8,1432.2,1307.8,1433.3z"/>
			<path fill="#FEEBD0" d="M1283.8,1429.9c-2.1-0.3-4.2-0.6-6.3-0.9C1279.6,1429.3,1281.7,1429.6,1283.8,1429.9z"/>
			<path fill="#FEEBD0" d="M1892.7,1551.6c-2.2-0.6-4.4-1.3-6.5-1.9C1888.4,1550.4,1890.5,1551,1892.7,1551.6z"/>
			<path fill="#FEEBD0" d="M1912.2,1557.4c-2.2-0.6-4.3-1.3-6.5-1.9C1907.9,1556.1,1910,1556.7,1912.2,1557.4z"/>
			<path fill="#FEEBD0" d="M1905.7,1555.4c-2.2-0.6-4.3-1.3-6.5-1.9C1901.4,1554.2,1903.5,1554.8,1905.7,1555.4z"/>
			<path fill="#FEEBD0" d="M1935.8,1564.6c-6.4-2-12.9-3.9-19.3-5.9C1923,1560.6,1929.4,1562.6,1935.8,1564.6z"/>
			<path fill="#FEEBD0" d="M1899.2,1553.5c-2.2-0.6-4.3-1.3-6.5-1.9C1894.9,1552.3,1897,1552.9,1899.2,1553.5z"/>
			<path fill="#FEEBD0" d="M1980.9,1579c6.4,2.1,12.8,4.2,19.1,6.4C1993.6,1583.2,1987.3,1581.1,1980.9,1579z"/>
			<path fill="#FEEBD0" d="M1980.9,1579c-1.2-0.4-2.4-0.8-3.6-1.2C1978.5,1578.2,1979.7,1578.6,1980.9,1579z"/>
			<path fill="#FEEBD0" d="M1936,1564.6c0,0-0.1,0-0.1,0C1935.9,1564.6,1935.9,1564.6,1936,1564.6z"/>
			<path fill="#FEEBD0" d="M1977.3,1577.8c-6.2-2-12.3-4-18.5-6C1965,1573.8,1971.1,1575.8,1977.3,1577.8z"/>
			<path fill="#FEEBD0" d="M1958.8,1571.8c-1.2-0.4-2.4-0.8-3.6-1.1C1956.4,1571,1957.6,1571.4,1958.8,1571.8z"/>
			<path fill="#FEEBD0" d="M1955.2,1570.6c-6.4-2-12.8-4.1-19.2-6C1942.4,1566.6,1948.8,1568.6,1955.2,1570.6z"/>
			<path fill="#FEEBD0" d="M1844.9,1538.2c-0.1,0-0.2-0.1-0.3-0.1C1844.8,1538.2,1844.9,1538.2,1844.9,1538.2z"/>
			<path fill="#FEEBD0" d="M1807.9,1528.5c-5.3-1.4-10.5-2.7-15.8-4C1797.4,1525.8,1802.7,1527.1,1807.9,1528.5z"/>
			<path fill="#FEEBD0" d="M1824.3,1532.7c-3.9-1-7.7-2-11.6-3C1816.6,1530.7,1820.4,1531.7,1824.3,1532.7z"/>
			<path fill="#FEEBD0" d="M1812.7,1529.7c-1.6-0.4-3.2-0.8-4.8-1.2C1809.5,1528.9,1811.1,1529.3,1812.7,1529.7z"/>
			<path fill="#FEEBD0" d="M1912.2,1557.4c1.4,0.4,2.9,0.9,4.3,1.3c-0.7-0.2-1.4-0.4-2.2-0.7
				C1913.6,1557.8,1912.9,1557.6,1912.2,1557.4z"/>
			<path fill="#FEEBD0" d="M1860.5,1542.5c2.1,0.6,4.1,1.1,6.2,1.7c-1.5-0.4-2.9-0.8-4.4-1.2
				C1861.7,1542.8,1861.1,1542.7,1860.5,1542.5z"/>
			<path fill="#FEEBD0" d="M1829.1,1534c-1.6-0.4-3.2-0.8-4.8-1.3C1825.9,1533.1,1827.5,1533.6,1829.1,1534z"/>
			<path fill="#FEEBD0" d="M1873.1,1546c-2.1-0.6-4.3-1.2-6.4-1.8C1868.8,1544.8,1871,1545.4,1873.1,1546z"/>
			<path fill="#FEEBD0" d="M1886.2,1549.7c-2.1-0.6-4.3-1.2-6.4-1.8C1881.9,1548.5,1884,1549.1,1886.2,1549.7z"/>
			<path fill="#FEEBD0" d="M1879.7,1547.9c-2.2-0.6-4.4-1.3-6.6-1.9C1875.3,1546.6,1877.5,1547.3,1879.7,1547.9z"/>
			<path fill="#FEEBD0" d="M1860.5,1542.5c-5.2-1.4-10.4-2.9-15.5-4.3C1850.1,1539.6,1855.3,1541.1,1860.5,1542.5z"/>
			<path fill="#FEEBD0" d="M1844.7,1538.1c-5.2-1.4-10.4-2.8-15.6-4.2C1834.3,1535.4,1839.5,1536.7,1844.7,1538.1z"/>
			<path fill="#FEEBD0" d="M918.5,1380.7c-4.9-0.7-9.9-1.4-14.8-2c-6.5-0.9-13-1.8-19.5-2.7C895.6,1377.5,907.1,1379.1,918.5,1380.7
				z"/>
			<path fill="#FEEBD0" d="M0,1241.1c313,310,1387.3,225.5,2000,434.4v-17.9C1331.6,1429.7,341.4,1521.8,0,1183.7V1241.1z"/>
			<path fill="#FEEBD0" d="M1200,1418.3c-6-0.8-11.9-1.6-17.9-2.4c-6-0.8-11.9-1.6-17.8-2.4
				C1176.2,1415.1,1188.1,1416.7,1200,1418.3z"/>
			<path fill="#FEEBD0" d="M1253.8,1425.7c-12-1.7-23.9-3.3-35.9-5C1229.9,1422.4,1241.8,1424,1253.8,1425.7z"/>
			<path fill="#FEEBD0" d="M1632.1,1488.3c-23.9-4.8-47.8-9.5-71.8-13.9C1584.2,1478.8,1608.2,1483.5,1632.1,1488.3z"/>
			<path fill="#FEEBD0" d="M1506.2,1464.7c-6-1-12-2.1-18-3.1c-6-1-12-2-18-3.1C1482.2,1460.5,1494.2,1462.6,1506.2,1464.7z"/>
			<path fill="#FEEBD0" d="M1716.4,1506.4c-2.7-0.6-5.3-1.2-8-1.8C1711.1,1505.2,1713.7,1505.8,1716.4,1506.4z"/>
			<path fill="#FEEBD0" d="M1754.4,1515.2c-2.4-0.6-4.9-1.1-7.3-1.7C1749.5,1514.1,1751.9,1514.6,1754.4,1515.2z"/>
			<path fill="#FEEBD0" d="M1735.4,1510.7c-2.6-0.6-5.2-1.2-7.8-1.8C1730.2,1509.5,1732.8,1510.1,1735.4,1510.7z"/>
			<path fill="#FEEBD0" d="M1747.1,1513.5c-3.9-0.9-7.8-1.8-11.7-2.7C1739.3,1511.6,1743.2,1512.6,1747.1,1513.5z"/>
			<path fill="#FEEBD0" d="M1767.2,1518.3c-4.3-1-8.6-2.1-12.9-3.1C1758.7,1516.2,1762.9,1517.3,1767.2,1518.3z"/>
			<path fill="#FEEBD0" d="M1773.3,1519.8c6.3,1.5,12.6,3.1,18.9,4.7C1785.9,1522.9,1779.6,1521.3,1773.3,1519.8z"/>
			<path fill="#FEEBD0" d="M1773.3,1519.8c-2-0.5-4-1-6.1-1.5C1769.2,1518.8,1771.3,1519.3,1773.3,1519.8z"/>
			<path fill="#FEEBD0" d="M1681.2,1498.6c-5.9-1.3-11.9-2.6-17.9-3.8C1669.3,1496,1675.2,1497.3,1681.2,1498.6z"/>
			<path fill="#FEEBD0" d="M1681.2,1498.6c2.7,0.6,5.5,1.2,8.2,1.8c-1.2-0.3-2.4-0.5-3.7-0.8
				C1684.2,1499.2,1682.7,1498.9,1681.2,1498.6z"/>
			<path fill="#FEEBD0" d="M1716.4,1506.4c3.7,0.8,7.5,1.7,11.2,2.6c-2.1-0.5-4.2-1-6.3-1.5
				C1719.7,1507.1,1718,1506.8,1716.4,1506.4z"/>
			<path fill="#FEEBD0" d="M1708.4,1504.6c-3.8-0.8-7.5-1.7-11.3-2.5C1700.9,1502.9,1704.7,1503.7,1708.4,1504.6z"/>
			<path fill="#FEEBD0" d="M1656.2,1493.3c-8-1.7-16.1-3.3-24.2-5C1640.1,1489.9,1648.2,1491.6,1656.2,1493.3z"/>
			<path fill="#FEEBD0" d="M1663.3,1494.8c-2.4-0.5-4.7-1-7.1-1.5C1658.6,1493.8,1660.9,1494.3,1663.3,1494.8z"/>
			<path fill="#FEEBD0" d="M1697.1,1502.1c-2.6-0.6-5.2-1.1-7.7-1.7C1692,1500.9,1694.5,1501.5,1697.1,1502.1z"/>
			<path fill="#FEEBD0" d="M1446,1454.5c-2-0.3-4-0.7-6-1C1442,1453.9,1444,1454.2,1446,1454.5z"/>
			<path fill="#FEEBD0" d="M1446,1454.5c8,1.3,16.1,2.6,24.1,4C1462.1,1457.2,1454,1455.8,1446,1454.5z"/>
			<path fill="#FEEBD0" d="M1416,1449.7c8,1.3,16,2.6,24,3.9c-14-2.3-28-4.5-42.1-6.7C1403.9,1447.8,1410,1448.7,1416,1449.7z"/>
			<path fill="#FEEBD0" d="M1057.9,1399.4c-11.7-1.5-23.5-3.1-35.1-4.6C1034.5,1396.3,1046.2,1397.8,1057.9,1399.4z"/>
			<path fill="#FEEED8" d="M0,1183.7c341.4,338.1,1331.6,246,2000,473.9v-17.9c-724.1-246.8-1630.1-147-2000-513.3V1183.7z"/>
			<path fill="#FEF1E0" d="M1632.1,1488.3c-23.9-4.8-47.8-9.5-71.8-13.9c-6-1.1-12-2.2-18-3.3c-12-2.2-24-4.3-36-6.4
				c-12-2.1-24-4.1-36.1-6.2c-24.1-4-48.1-7.9-72.2-11.7c-12-1.9-24.1-3.7-36.1-5.5c-6-0.9-12-1.8-18-2.7c-12-1.8-24-3.5-36-5.3
				c-18-2.6-36-5.2-54-7.7c-12-1.7-23.9-3.3-35.9-5c-6-0.8-11.9-1.6-17.9-2.4c-11.9-1.6-23.8-3.2-35.7-4.8
				c-5.9-0.8-11.9-1.6-17.8-2.4c-5.9-0.8-11.9-1.6-17.8-2.4c-5.9-0.8-11.8-1.6-17.8-2.4c-5.2-0.7-10.4-1.4-15.6-2.1
				c-12.5-1.6-25-3.3-37.4-4.9c-11.7-1.5-23.5-3.1-35.1-4.6c-11.7-1.5-23.3-3.1-35-4.6c-11.6-1.6-23.2-3.1-34.8-4.7
				c-6.6-0.9-13.1-1.8-19.7-2.7c-5-0.7-9.9-1.4-14.9-2c-11.5-1.6-22.9-3.2-34.3-4.8c-10.6-1.5-21.1-3-31.6-4.5
				c-6.5-0.9-12.9-1.9-19.4-2.8c-10.4-1.5-20.8-3.1-31.1-4.6c-1.7-0.3-3.4-0.5-5.1-0.8c-9.4-1.4-18.9-2.9-28.2-4.3
				c-1.7-0.3-3.5-0.5-5.2-0.8c-15.7-2.5-31.3-5-46.8-7.5c-15.4-2.6-30.7-5.2-45.9-7.8c-12.7-2.2-25.3-4.5-37.8-6.9
				c-13.9-2.6-27.6-5.2-41.2-8c-6.2-1.2-12.5-2.5-18.7-3.8c-9.2-1.9-18.4-3.8-27.6-5.8c-17.7-3.8-35.1-7.8-52.3-11.9
				c-12.5-3-24.9-6-37.1-9.2c-2.5-0.6-5-1.3-7.6-1.9c-12-3.1-23.8-6.3-35.6-9.6c-17.1-4.8-34-9.8-50.6-15c-6.3-2-12.5-4-18.7-6
				c-16.9-5.5-33.4-11.3-49.6-17.3c-5.5-2-10.9-4.1-16.3-6.1c-7.8-3-15.5-6-23.1-9.2c-11-4.5-21.8-9.1-32.5-13.9
				c-6.3-2.8-12.5-5.7-18.7-8.6c-31.7-14.9-61.8-31.2-90.1-48.9c-4.4-2.7-8.7-5.5-13.1-8.4c-19.1-12.5-37.3-25.6-54.6-39.6
				c-16-12.9-31.3-26.5-45.8-40.8v54.3c369.9,366.3,1275.9,266.5,2000,513.3v-54.3c-67.9-23.1-137.4-43.2-207.9-61
				C1739.3,1511.2,1685.8,1499.2,1632.1,1488.3z"/>
		</g>
		<g>
			<g opacity="0.44">
				<ellipse fill="#FDE5C6" cx="580.2" cy="1761.6" rx="337.1" ry="36.9"/>
			</g>
			<g opacity="0.44">
				<path fill="#FDE5C6" d="M1111,1727.1c-7-0.4-16.3-1-26.8-1.3c-44.1-1.3-110.3,1.7-122,38.7c-1.4,4.4-0.8,9.8,2.7,12.8
					c1.7,1.5,3.9,2.3,6,3c48,15.5,131,26.9,178,5.3c27.7-12.7,17.3-43.2-6.8-53C1132.2,1728.7,1121.5,1727.7,1111,1727.1z"/>
			</g>
			<g opacity="0.44">
				<path fill="#FDE5C6" d="M1471.9,1730.5c-6.9-1-16.1-2.3-26.6-3.5c-43.8-5-110-7.6-124.9,28.3c-1.8,4.3-1.6,9.7,1.6,13
					c1.6,1.6,3.7,2.6,5.7,3.5c46.5,19.5,128.3,37.8,176.9,20.3c28.7-10.4,20.9-41.6-2.3-53.3
					C1492.9,1733.9,1482.4,1732,1471.9,1730.5z"/>
			</g>
			<g opacity="0.44">
				<path fill="#FDE5C6" d="M1926.2,1767.4c-6.9-1-16.1-2.3-26.6-3.5c-43.8-5-110-7.6-124.9,28.3c-1.8,4.3-1.6,9.7,1.6,13
					c1.6,1.6,3.7,2.6,5.7,3.5c46.5,19.5,128.3,37.8,176.9,20.3c28.7-10.4,20.9-41.6-2.3-53.3
					C1947.3,1770.8,1936.7,1768.9,1926.2,1767.4z"/>
			</g>
		</g>
	</g>
</g>
<g id="bookworm">
	<g>
		<g>
			<g>
				<path fill="#1D1C1A" d="M514.5,767.2c0,272.1,173.8,396.8,240.1,396.8c40.7,0,70.6-35.3,111.7-31.6c47.7,4.3,79.8,48,122.2,65.4
					c83,34.1,179.3,26.3,259.8-11.1c92.4-42.9,165.5-126.5,172.5-230.7c5.6-83-34.7-189.4-132.3-189.4c-52.9,0-126.3,37-187.4,37
					c-138.2,0-122-198.9-267.6-200.5c-46.8-0.5-59.5-36.3-59.5-79.3c0-48.3,15.1-98.7,15.1-120.5c0-107.7-137.7-76-181.6-150.2
					C574,196.6,557.8,92.7,451.9,92.7c-43.1,0-130.6,29.6-130.6,96.1c0,40.3,21.3,81,66.1,94.2C532,325.6,538.4,448,519.7,578.7
					C510.7,641.9,514.5,708,514.5,767.2z"/>
			</g>
		</g>
		<g>
			<g>
				<path fill="#1D1C1A" d="M927.3,1061c0.3-1,0.4-2,0.5-3C927.7,1059,927.5,1060,927.3,1061z"/>
			</g>
		</g>
		<g>
			<g>
				<path fill="#F9A159" d="M472,350.4c12.5,12.9,21.7,29.9,27.2,47.1c14.3-15.7,30-29.9,45.1-44.7c-14.9-23.8-37.5-53.5-59.8-70.1
					C481.8,301.9,476.5,331.3,472,350.4z"/>
			</g>
		</g>
		<g>
			<g>
				<path fill="#D98C4D" d="M484.5,282.6c-2.8,19.3-8,48.7-12.5,67.8c6.8,7,12.5,15.1,17.3,23.8c9.4-16.1,10.2-44.1,6.7-61.6
					c-3.4-17.1-5.8-22.6-8.2-27.3c0,0,0.1-0.1,0.1-0.1C486.8,284.4,485.7,283.5,484.5,282.6z"/>
			</g>
		</g>
		<g>
			<g>
				<path fill="#F9A159" d="M494.2,273.1c0-11.1-8-32.6-19.1-32.6c-6.5,0-13.2,10.2-13.2,16.9c0,0.8,0,1.6,0.1,2.4
					c-0.1,0-0.1,0-0.2,0c-13.5,0-27-4.9-38-12.6c2,6.2,4.7,12.1,8,17.8c-26.3-4-49.4-18.1-70.5-33.7c6,28.2,11.3,57.4,24.3,83
					c-1,8.5-3.1,20.5-7.5,30.6c3.1,0.2,6.7,0.2,10.4,0.2c3.8,0,12.5-0.2,19.6-0.9c14.3,16.7,25.2,37.5,46.7,37.5
					c24,0,35.8-43.2,35.8-67.9c0-17.4-1.3-23.3-2.8-28.4C491.7,283.4,494.2,279.3,494.2,273.1z"/>
			</g>
		</g>
		<g>
			<g>
				<path fill="#F9A159" d="M595.1,1765.2c0,13.9,50.5,14.9,64.5,13.7c47.5-3.9,129.7-69.3,137.3-96.1c2.9-10.4-6.6-22.4-19-34.8
					c-53.2-53.2-76.3-121.6-108.9-185l-82-16.9c28,62.2,63,127.7,101,193.3C712.1,1738.8,595.1,1745.9,595.1,1765.2z"/>
			</g>
		</g>
		<g>
			<g>
				<path fill="#D98C4D" d="M796.9,1682.8c2.9-10.4-6.6-22.4-19-34.8c-53.2-53.2-76.3-121.6-108.9-185l-82-16.9
					c15,33.2,31.9,67.4,50.3,102c1.6,1.3,3.3,2.6,5,3.9c46,36,105,56,129,110c9.6,21.2,2.6,43.2-9.5,62.7
					C780.3,1708.8,794,1693,796.9,1682.8z"/>
			</g>
		</g>
		<g>
			<g>
				<path fill="#F9A159" d="M347.3,1736.3c-6.5,0.3-12.4,6.8-12.4,13.9c0,30.5,63,19.2,73.3,17.9c75.4-9.4,83.9,9.2,126.3,9.2
					c21,0,44,0.5,36.4-28.8c-17.9-69.4-8.2-160.9-10.1-303.9l-74,11.6C500.8,1706.7,486.9,1730.2,347.3,1736.3z"/>
			</g>
		</g>
		<g>
			<g>
				<path fill="#D98C4D" d="M533.6,1777.3c0.3,0,0.6,0,0.9,0c21,0,44,0.5,36.4-28.8c-17.9-69.4-8.2-160.9-10.1-303.9l-74,11.6
					c0.7,12.9,1.4,25.2,1.9,36.9c31.2-2.7,59.7,18.5,61.5,51.8c3,40-1,79-1,119c0,17,4,33,9,49
					C565.5,1738,551.1,1760.7,533.6,1777.3z"/>
			</g>
		</g>
		<g>
			<g>
				<path fill="#FFDE17" d="M425.1,1503.7c24.4-12.8,51.6-18.7,79-18.7c138.7,0,173.3,140.3,377.3,140.3
					c61.6,0,120.8-18.7,169.1-62.3c-193.5-106.8-166.8-206.1-265-356.3c-38.6-59.1-80.9-115.9-113.7-178.5
					c-52-99.2-81.5-211.3-54-322.5c14.4-58.5,24.9-134.3,24.9-195.1c0-58-35.7-99.9-73.1-146c-34.4,30.4-71.6,60.3-116.1,74.5
					l17.3-4.7c-24.8,81.8-70.5,92.7-70.5,124.2c0,23.8,19.6,40.8,37.1,57.7c3,24.5,4.3,48.9,4.3,73.1c0,169.6-59.1,294.9-59.1,520.5
					C382.6,1309.9,395.3,1408.6,425.1,1503.7z"/>
			</g>
		</g>
		<g>
			<g>
				<path fill="#F0C419" d="M553.3,433c10-8,24-16,34-9c13.1,7.1,26.3,15.5,39.9,22.6c-13.9-28.7-35.5-54.7-57.8-82.1
					c-34.4,30.4-71.6,60.3-116.1,74.5l17.3-4.7c-4.6,15.1-9.9,27.7-15.4,38.6C490.3,470.2,523.2,454.7,553.3,433z"/>
			</g>
		</g>
		<g>
			<g>
				<path fill="#F0C419" d="M893.3,1580c-23-1-43-10-66-15c-14-4-25-11-38-17c-58-29-107-72-168-96c-30-11-62-3-94-11
					c-67-17-104-82-129-142c-5-12.9-10-25.4-14.6-37.9c3.7,82.5,16.7,163.8,41.3,242.6c24.4-12.8,51.6-18.7,79-18.7
					c138.7,0,173.3,140.3,377.3,140.3c61.6,0,120.8-18.7,169.1-62.3c-1-0.5-1.9-1-2.8-1.6C1004.1,1593.2,944.8,1582.7,893.3,1580z"
					/>
			</g>
		</g>
		<g>
			<g>
				<path fill="#D63D3E" d="M573.7,373c-9.7,0-19.3,1.3-29.1,3.1c-2.8,7.9-4.4,15.9-5.1,23.8c6.6-1.3,13.2-1.9,19.9-1.9
					c77.8,0,174.8,139.7,421.2,139.7c95.3,0,188.4-26,266.9-84.1c-15.4-39.2-36.6-77.2-65-108.4c-99.4,46.9-206.5,66.6-315.3,66.6
					C709.1,411.8,604,373,573.7,373z"/>
			</g>
		</g>
		<g>
			<g>
				<g>
					<path fill="#D63D3E" d="M1210.3,348.4c-11.7,6-22.4,12.7-31.9,19.9c-0.7,0.5-0.8,1.4-0.3,2.1c0.3,0.4,0.7,0.6,1.2,0.6
						c0.3,0,0.6-0.1,0.9-0.3c9.3-7.1,19.9-13.7,31.4-19.7c0.7-0.4,1-1.3,0.6-2C1211.9,348.3,1211,348,1210.3,348.4z"/>
				</g>
			</g>
			<g>
				<g>
					<path fill="#D63D3E" d="M1216.4,358.6c-10.7,6-20.7,12.8-29.6,20.2c-0.6,0.5-0.7,1.5-0.2,2.1c0.3,0.4,0.7,0.5,1.2,0.5
						c0.3,0,0.7-0.1,1-0.3c8.8-7.3,18.6-14,29.1-19.9c0.7-0.4,1-1.3,0.6-2C1218.1,358.5,1217.2,358.2,1216.4,358.6z"/>
				</g>
			</g>
			<g>
				<g>
					<path fill="#D63D3E" d="M1223.9,369.2c-5.5,2.9-10.7,6.2-15.8,9.5c-4.5,2.9-9.2,5.9-14,8.5c-0.7,0.4-1,1.3-0.6,2
						c0.3,0.5,0.8,0.8,1.3,0.8c0.2,0,0.5-0.1,0.7-0.2c4.9-2.7,9.6-5.7,14.2-8.6c5-3.2,10.2-6.6,15.6-9.4c0.7-0.4,1-1.3,0.6-2
						C1225.6,369.1,1224.7,368.8,1223.9,369.2z"/>
				</g>
			</g>
			<g>
				<g>
					<path fill="#D63D3E" d="M1230.3,378.6c-7.8,4.2-15.1,9.3-22.1,14.2c-2.4,1.7-4.7,3.3-7.1,4.9c-0.7,0.5-0.9,1.4-0.4,2.1
						c0.3,0.4,0.8,0.7,1.2,0.7c0.3,0,0.6-0.1,0.8-0.3c2.4-1.6,4.8-3.3,7.2-5c7-4.9,14.2-10,21.8-14c0.7-0.4,1-1.3,0.6-2
						C1231.9,378.5,1231,378.2,1230.3,378.6z"/>
				</g>
			</g>
			<g>
				<g>
					<path fill="#D63D3E" d="M1236.3,387.5c-7.2,4-13.9,8.7-20.5,13.4c-2.7,1.9-5.6,3.9-8.4,5.8c-0.7,0.5-0.9,1.4-0.4,2.1
						c0.3,0.4,0.8,0.7,1.2,0.7c0.3,0,0.6-0.1,0.8-0.3c2.8-1.9,5.7-3.9,8.4-5.9c6.5-4.6,13.2-9.3,20.2-13.2c0.7-0.4,1-1.3,0.6-2
						C1238,387.4,1237.1,387.1,1236.3,387.5z"/>
				</g>
			</g>
			<g>
				<g>
					<path fill="#D63D3E" d="M1243,398.1c-6.6,3.4-13,7.4-19.1,11.3c-4.9,3.1-10.1,6.4-15.2,9.3c-0.7,0.4-1,1.3-0.6,2
						c0.3,0.5,0.8,0.8,1.3,0.8c0.2,0,0.5-0.1,0.7-0.2c5.3-2.9,10.4-6.2,15.4-9.4c6.1-3.9,12.4-7.9,18.9-11.2c0.7-0.4,1-1.3,0.7-2
						C1244.6,398,1243.7,397.7,1243,398.1z"/>
				</g>
			</g>
			<g>
				<g>
					<path fill="#D63D3E" d="M1251.1,410.3c-12.9,5.7-27.6,12.9-39.8,23.6c-0.6,0.5-0.7,1.5-0.1,2.1c0.3,0.3,0.7,0.5,1.1,0.5
						c0.4,0,0.7-0.1,1-0.4c11.8-10.4,26.3-17.5,39-23.1c0.8-0.3,1.1-1.2,0.8-2C1252.7,410.3,1251.9,410,1251.1,410.3z"/>
				</g>
			</g>
			<g>
				<g>
					<path fill="#D63D3E" d="M1258.8,423.2c-13.6,3.8-25.5,11.7-37,19.3c-1.4,0.9-2.9,1.9-4.3,2.8c-0.7,0.5-0.9,1.4-0.4,2.1
						c0.3,0.4,0.8,0.7,1.3,0.7c0.3,0,0.6-0.1,0.8-0.2c1.4-0.9,2.9-1.9,4.3-2.8c11.3-7.5,23-15.2,36.2-18.9c0.8-0.2,1.3-1,1-1.8
						C1260.5,423.4,1259.6,422.9,1258.8,423.2z"/>
				</g>
			</g>
			<g>
				<g>
					<path fill="#D63D3E" d="M1261.3,428.7c-2.7,1.5-5.5,3-8.2,4.5c-10.3,5.6-21,11.4-29.8,19.2c-0.6,0.6-0.7,1.5-0.1,2.1
						c0.3,0.3,0.7,0.5,1.1,0.5c0.4,0,0.7-0.1,1-0.4c8.5-7.6,19-13.3,29.2-18.8c2.7-1.5,5.5-3,8.2-4.5c0.7-0.4,1-1.3,0.6-2
						C1262.9,428.5,1262,428.3,1261.3,428.7z"/>
				</g>
			</g>
			<g>
				<g>
					<path fill="#D63D3E" d="M1265.1,436.2c-12.6,8.3-25.8,14.7-39.2,18.9c-0.8,0.2-1.2,1.1-1,1.9c0.2,0.6,0.8,1.1,1.4,1.1
						c0.1,0,0.3,0,0.5-0.1c13.7-4.3,27.1-10.8,40-19.3c0.7-0.5,0.9-1.4,0.4-2.1C1266.7,435.9,1265.8,435.7,1265.1,436.2z"/>
				</g>
			</g>
		</g>
		<g>
			<g>
				<path fill="#EF4345" d="M746.2,375.4c-70.1,0-142.3-25.8-142.9-25.8c-14.3,0-30.6,7.1-43.3,16.3l-1.5,24
					c8.5-3.2,17-4.5,25.4-4.5c45.1,0,137.3,64.3,320.2,64.3c111.2,0,221.1-27.3,311.4-90.3c-13.5-63.4-59.7-114.9-102.8-164.1
					C1024.5,299.7,886.3,375.4,746.2,375.4z"/>
			</g>
		</g>
		<g>
			<g>
				<g>
					<path fill="#EF4345" d="M1129.4,180.6c-7,7.7-13.3,16.7-19.1,27.5c-0.4,0.7-0.1,1.6,0.6,2c0.2,0.1,0.5,0.2,0.7,0.2
						c0.5,0,1-0.3,1.3-0.8c5.7-10.6,11.8-19.4,18.7-26.9c0.6-0.6,0.5-1.6-0.1-2.1C1130.9,179.9,1129.9,180,1129.4,180.6z"/>
				</g>
			</g>
			<g>
				<g>
					<path fill="#EF4345" d="M1139.7,189.5c-6.9,5.8-13.1,12.5-19,19.1c-2,2.2-4,4.4-6.1,6.6c-0.6,0.6-0.5,1.6,0.1,2.1
						c0.3,0.3,0.7,0.4,1,0.4c0.4,0,0.8-0.2,1.1-0.5c2.1-2.2,4.1-4.5,6.1-6.7c5.9-6.5,11.9-13.1,18.7-18.8c0.6-0.5,0.7-1.5,0.2-2.1
						C1141.3,189.1,1140.4,189,1139.7,189.5z"/>
				</g>
			</g>
			<g>
				<g>
					<path fill="#EF4345" d="M1149.8,198.7c-8.9,5.8-16.8,13.1-24.4,20.2c-1.6,1.5-3.3,3-4.9,4.5c-0.6,0.6-0.7,1.5-0.1,2.1
						c0.3,0.3,0.7,0.5,1.1,0.5c0.4,0,0.7-0.1,1-0.4c1.6-1.5,3.3-3,4.9-4.5c7.5-7,15.3-14.2,24-19.9c0.7-0.5,0.9-1.4,0.4-2.1
						C1151.4,198.5,1150.5,198.3,1149.8,198.7z"/>
				</g>
			</g>
			<g>
				<g>
					<path fill="#EF4345" d="M1163.7,213.5c-13.5,6.5-25,14.7-34.1,24.6c-0.6,0.6-0.5,1.6,0.1,2.1c0.3,0.3,0.7,0.4,1,0.4
						c0.4,0,0.8-0.2,1.1-0.5c8.9-9.5,20.1-17.6,33.3-23.9c0.7-0.4,1.1-1.3,0.7-2C1165.3,213.4,1164.4,213.1,1163.7,213.5z"/>
				</g>
			</g>
			<g>
				<g>
					<path fill="#EF4345" d="M1178,233.2l-4.7,2.6c-10.8,6-22,12.1-32.6,18.9c-0.7,0.4-0.9,1.4-0.5,2.1c0.3,0.4,0.8,0.7,1.3,0.7
						c0.3,0,0.6-0.1,0.8-0.2c10.5-6.7,21.7-12.9,32.5-18.8l4.7-2.6c0.7-0.4,1-1.3,0.6-2C1179.6,233.1,1178.7,232.8,1178,233.2z"/>
				</g>
			</g>
			<g>
				<g>
					<path fill="#EF4345" d="M1190.7,250.9c-13.4,6.2-27.5,13.4-39.5,23.8c-0.6,0.5-0.7,1.5-0.2,2.1c0.3,0.3,0.7,0.5,1.1,0.5
						c0.3,0,0.7-0.1,1-0.4c11.8-10.2,25.6-17.3,38.8-23.4c0.8-0.3,1.1-1.2,0.7-2C1192.3,250.9,1191.5,250.6,1190.7,250.9z"/>
				</g>
			</g>
			<g>
				<g>
					<path fill="#EF4345" d="M1202,270c-8.2,4.3-16.3,8.9-24.3,13.3c-5.4,3-10.9,6.1-16.4,9.1c-0.7,0.4-1,1.3-0.6,2
						c0.3,0.5,0.8,0.8,1.3,0.8c0.2,0,0.5-0.1,0.7-0.2c5.5-3,11-6.1,16.4-9.1c7.9-4.4,16.1-9,24.2-13.3c0.7-0.4,1-1.3,0.6-2
						C1203.7,269.9,1202.8,269.6,1202,270z"/>
				</g>
			</g>
			<g>
				<g>
					<path fill="#EF4345" d="M1212.4,286.5c-17.3,9.5-31.8,17.3-47.9,22.7c-0.8,0.3-1.2,1.1-0.9,1.9c0.2,0.6,0.8,1,1.4,1
						c0.2,0,0.3,0,0.5-0.1c16.3-5.6,31-13.3,48.4-23c0.7-0.4,1-1.3,0.6-2C1214.1,286.4,1213.2,286.1,1212.4,286.5z"/>
				</g>
			</g>
			<g>
				<g>
					<path fill="#EF4345" d="M1219.9,302.2c-16.6,12.2-29.8,20.6-42.8,27.4c-0.7,0.4-1,1.3-0.6,2c0.3,0.5,0.8,0.8,1.3,0.8
						c0.2,0,0.5-0.1,0.7-0.2c13.2-6.8,26.5-15.4,43.2-27.6c0.7-0.5,0.8-1.4,0.3-2.1C1221.5,301.9,1220.6,301.7,1219.9,302.2z"/>
				</g>
			</g>
			<g>
				<g>
					<path fill="#EF4345" d="M1225.9,317.2c-8.5,4.9-16.2,8.4-23.7,10.7c-0.8,0.2-1.2,1.1-1,1.9c0.2,0.6,0.8,1.1,1.4,1.1
						c0.1,0,0.3,0,0.4-0.1c7.7-2.4,15.7-5.9,24.3-11c0.7-0.4,1-1.3,0.5-2C1227.6,317,1226.7,316.8,1225.9,317.2z"/>
				</g>
			</g>
			<g>
				<g>
					<path fill="#EF4345" d="M1230.5,330.4c-12.8,5.9-23.7,11.5-33.6,17c-0.7,0.4-1,1.3-0.6,2c0.3,0.5,0.8,0.8,1.3,0.8
						c0.2,0,0.5-0.1,0.7-0.2c9.8-5.5,20.7-11,33.4-16.9c0.8-0.3,1.1-1.2,0.7-2C1232.2,330.4,1231.3,330.1,1230.5,330.4z"/>
				</g>
			</g>
			<g>
				<g>
					<path fill="#EF4345" d="M1232.8,339l-0.4,0.2c-19,9.5-23.3,10.9-24.3,11.1c-0.4-0.1-0.8-0.1-1.2,0.1c-0.7,0.4-1,1.3-0.7,2
						c0.2,0.4,0.5,0.7,1,0.8c0.1,0,0.3,0.1,0.6,0.1c1.4,0,5.8-1.4,25.9-11.4l0.4-0.2c0.7-0.4,1-1.3,0.7-2
						C1234.5,338.9,1233.6,338.6,1232.8,339z"/>
				</g>
			</g>
			<g>
				<g>
					<path fill="#EF4345" d="M1216.4,294.9c-9.6,5.6-18.1,10.7-26.1,15.8c-0.7,0.4-0.9,1.4-0.5,2.1c0.3,0.5,0.8,0.7,1.3,0.7
						c0.3,0,0.5-0.1,0.8-0.2c8-5,16.5-10.2,26-15.7c0.7-0.4,1-1.3,0.5-2.1C1218.1,294.7,1217.1,294.5,1216.4,294.9z"/>
				</g>
			</g>
			<g>
				<g>
					<path fill="#EF4345" d="M1198.5,262.3c-11.6,4.9-21.8,10.7-30.3,17.4c-0.7,0.5-0.8,1.5-0.3,2.1c0.3,0.4,0.7,0.6,1.2,0.6
						c0.3,0,0.6-0.1,0.9-0.3c8.3-6.5,18.3-12.2,29.6-17c0.8-0.3,1.1-1.2,0.8-2C1200.2,262.3,1199.3,262,1198.5,262.3z"/>
				</g>
			</g>
			<g>
				<g>
					<path fill="#EF4345" d="M1185.5,242.7c-0.9,0.5-1.8,0.9-2.8,1.4c-9.4,4.6-19,9.3-26,17.6c-0.5,0.6-0.4,1.6,0.2,2.1
						c0.3,0.2,0.6,0.3,1,0.3c0.4,0,0.9-0.2,1.2-0.5c6.5-7.8,15.9-12.4,25-16.9c0.9-0.5,1.9-0.9,2.8-1.4c0.7-0.4,1-1.3,0.7-2
						S1186.3,242.3,1185.5,242.7z"/>
				</g>
			</g>
			<g>
				<g>
					<path fill="#EF4345" d="M1172.1,224.2c-2.9,1.7-6,3.4-9,5.1c-8.6,4.7-17.5,9.6-24.8,16.6c-0.6,0.6-0.6,1.5,0,2.1
						c0.3,0.3,0.7,0.5,1.1,0.5c0.4,0,0.7-0.1,1-0.4c7-6.7,15.7-11.5,24.2-16.1c3-1.6,6.1-3.3,9.1-5.1c0.7-0.4,0.9-1.3,0.5-2.1
						C1173.7,224,1172.8,223.7,1172.1,224.2z"/>
				</g>
			</g>
		</g>
		<g>
			<g>
				<path fill="#EF4345" d="M549.2,332c-26.3,0-46.4,19.4-61,39.2c-15.7,21.2-32.6,47.9-42.6,72.3c-0.7,1.7-1.2,3.3-1.4,4.7
					c-3,19.6,38.8,10.6,48.8,6.7c17.4-6.9,33.4-17.4,48.4-28.5c21.6-15.9,53.8-42.5,53.8-72.3c0-6.3-2.5-11.7-9.8-13
					C570.7,338.5,558.1,332,549.2,332z"/>
			</g>
		</g>
		<g>
			<g>
				<g>
					<polygon fill="#D63D3E" points="163.7,582.6 67.2,568.9 67.2,580.1 265.2,725.1 325.2,663.2 288.7,631.6 231.7,609.6 					"/>
				</g>
			</g>
			<g>
				<g>
					<polygon fill="#EF4345" points="67.2,568.9 266.5,711.9 321.8,656.6 153.2,495.2 139.8,487.2 					"/>
				</g>
			</g>
			<g>
				<g>
					<polygon fill="#E6E7E8" points="269.8,697.9 299.2,663.2 109.2,530.6 81.2,566.6 					"/>
				</g>
			</g>
			<g>
				<g>
					<path fill="#FFFFFF" d="M181.8,484.5c-6.7-5.9-16.7-6.3-23.8-0.9c-34.8,26.4-48.9,46.9-48.9,46.9l190,132.7l31.8-35.5
						c7.3-7.8,6.7-20-1.3-27L181.8,484.5z"/>
				</g>
			</g>
			<g>
				<g>
					<path fill="#1D1C1A" d="M177.6,496.1c-3.4,2.3-6.6,5-9.9,7.9c-3.1,2.6-6.3,5.3-9.7,7.7c-3.9,3.3-6.6,7-9.4,10.8
						c-1.5,2-3,4.1-4.7,6.2c-0.8,0.8-2.4,0.9-4.8,0.4c-0.3-0.1-0.5,0.1-0.6,0.4c-0.1,0.3,0.1,0.5,0.4,0.6c1,0.2,1.9,0.3,2.6,0.3
						c1.4,0,2.4-0.3,3.1-1c1.8-2.1,3.3-4.2,4.7-6.3c2.7-3.8,5.3-7.4,9.2-10.6c3.4-2.4,6.6-5.1,9.7-7.7c3.3-2.8,6.5-5.5,9.9-7.8
						c0.2-0.2,0.3-0.5,0.1-0.7C178.2,496,177.9,495.9,177.6,496.1z"/>
				</g>
			</g>
			<g>
				<g>
					<path fill="#1D1C1A" d="M190,508c-3,2.6-6.1,5-9.4,7.6c-8.8,6.8-17.8,13.9-23.7,24.2c-0.6,1.1-1.8,2.1-3,2.5
						c-1.1,0.3-2.2,0.2-3.1-0.4c-0.2-0.1-0.5-0.1-0.7,0.2c-0.1,0.2-0.1,0.5,0.2,0.7c0.8,0.5,1.6,0.7,2.5,0.7c0.5,0,0.9-0.1,1.4-0.2
						c1.5-0.4,2.9-1.6,3.6-3c5.8-10.1,14.8-17.1,23.5-23.9c3.2-2.5,6.5-5,9.5-7.6c0.2-0.2,0.2-0.5,0-0.7
						C190.6,507.8,190.2,507.8,190,508z"/>
				</g>
			</g>
			<g>
				<g>
					<path fill="#1D1C1A" d="M210,518.3c-3,2.6-6.1,5-9.4,7.6c-8.8,6.8-17.8,13.9-23.7,24.2c-0.6,1.1-1.8,2.1-3,2.5
						c-1.1,0.3-2.2,0.2-3.1-0.4c-0.2-0.1-0.5-0.1-0.7,0.2c-0.1,0.2-0.1,0.5,0.2,0.7c0.8,0.5,1.6,0.7,2.5,0.7c0.5,0,0.9-0.1,1.4-0.2
						c1.5-0.4,2.9-1.6,3.6-3c5.8-10.1,14.8-17.1,23.5-23.9c3.2-2.5,6.5-5,9.4-7.6c0.2-0.2,0.2-0.5,0-0.7
						C210.5,518.1,210.2,518.1,210,518.3z"/>
				</g>
			</g>
			<g>
				<g>
					<path fill="#1D1C1A" d="M227.6,533.9c-3,2.6-6.1,5-9.4,7.6c-8.8,6.8-17.8,13.9-23.7,24.2c-0.6,1.1-1.8,2.1-3,2.5
						c-1.1,0.3-2.2,0.2-3.1-0.4c-0.2-0.1-0.5-0.1-0.7,0.2c-0.1,0.2-0.1,0.5,0.2,0.7c0.8,0.5,1.6,0.7,2.5,0.7c0.5,0,0.9-0.1,1.4-0.2
						c1.5-0.4,2.9-1.6,3.6-3c5.8-10.1,14.8-17.1,23.5-23.9c3.2-2.5,6.5-5,9.5-7.6c0.2-0.2,0.2-0.5,0-0.7
						C228.1,533.8,227.8,533.7,227.6,533.9z"/>
				</g>
			</g>
			<g>
				<g>
					<path fill="#1D1C1A" d="M246.2,546.4c-3,2.6-6.1,5-9.4,7.6c-8.8,6.8-17.8,13.9-23.7,24.2c-0.6,1.1-1.8,2.1-3,2.5
						c-1.1,0.3-2.2,0.2-3.1-0.4c-0.2-0.1-0.5-0.1-0.7,0.2s-0.1,0.5,0.2,0.7c0.8,0.5,1.6,0.7,2.5,0.7c0.5,0,0.9-0.1,1.4-0.2
						c1.5-0.4,2.9-1.6,3.6-3c5.8-10.1,14.8-17.1,23.5-23.9c3.2-2.5,6.5-5,9.5-7.6c0.2-0.2,0.2-0.5,0-0.7
						C246.7,546.3,246.4,546.3,246.2,546.4z"/>
				</g>
			</g>
			<g>
				<g>
					<path fill="#1D1C1A" d="M265.1,559.7c-3,2.6-6.1,5-9.4,7.6c-8.8,6.8-17.8,13.9-23.7,24.2c-0.6,1.1-1.8,2.1-3,2.5
						c-1.1,0.3-2.2,0.2-3.1-0.4c-0.2-0.1-0.5-0.1-0.7,0.2c-0.1,0.2-0.1,0.5,0.2,0.7c0.8,0.5,1.6,0.7,2.5,0.7c0.5,0,0.9-0.1,1.4-0.2
						c1.5-0.4,2.9-1.6,3.6-3c5.8-10.1,14.8-17.1,23.5-23.9c3.2-2.5,6.5-5,9.5-7.6c0.2-0.2,0.2-0.5,0-0.7
						C265.6,559.6,265.3,559.6,265.1,559.7z"/>
				</g>
			</g>
			<g>
				<g>
					<path fill="#1D1C1A" d="M282.7,573.4c-3,2.6-6.1,5-9.4,7.6c-8.8,6.8-17.8,13.9-23.7,24.2c-0.6,1.1-1.8,2.1-3,2.5
						c-1.1,0.3-2.2,0.2-3.1-0.4c-0.2-0.1-0.5-0.1-0.7,0.2c-0.1,0.2-0.1,0.5,0.2,0.7c0.8,0.5,1.6,0.7,2.5,0.7c0.5,0,0.9-0.1,1.4-0.2
						c1.5-0.4,2.9-1.6,3.6-3c5.8-10.1,14.8-17.1,23.5-23.9c3.2-2.5,6.5-5,9.4-7.6c0.2-0.2,0.2-0.5,0-0.7
						C283.2,573.2,282.9,573.2,282.7,573.4z"/>
				</g>
			</g>
			<g>
				<g>
					<path fill="#1D1C1A" d="M298.8,588.3c-3,2.6-6.1,5-9.4,7.6c-8.8,6.8-17.8,13.9-23.7,24.2c-0.6,1.1-1.8,2.1-3,2.5
						c-1.1,0.3-2.2,0.2-3.1-0.4c-0.2-0.1-0.5-0.1-0.7,0.2c-0.1,0.2-0.1,0.5,0.2,0.7c0.8,0.5,1.6,0.7,2.5,0.7c0.5,0,0.9-0.1,1.4-0.2
						c1.5-0.4,2.9-1.6,3.6-3c5.8-10.1,14.8-17.1,23.5-23.9c3.2-2.5,6.5-5,9.5-7.6c0.2-0.2,0.2-0.5,0-0.7
						C299.3,588.1,299,588.1,298.8,588.3z"/>
				</g>
			</g>
			<g>
				<g>
					<path fill="#1D1C1A" d="M318.8,601.5c-3,2.6-6.1,5-9.4,7.6c-8.8,6.8-17.8,13.9-23.7,24.2c-0.6,1.1-1.8,2.1-3,2.5
						c-1.1,0.3-2.2,0.2-3.1-0.4c-0.2-0.1-0.5-0.1-0.7,0.2c-0.1,0.2-0.1,0.5,0.2,0.7c0.8,0.5,1.6,0.7,2.5,0.7c0.5,0,0.9-0.1,1.4-0.2
						c1.5-0.4,2.9-1.6,3.6-3c5.8-10.1,14.8-17.1,23.5-23.9c3.2-2.5,6.5-5,9.5-7.6c0.2-0.2,0.2-0.5,0-0.7
						C319.3,601.3,319,601.3,318.8,601.5z"/>
				</g>
			</g>
		</g>
		<g>
			<g>
				<path fill="#F0C419" d="M534.4,800.8c39.2,0,49-208.8,50.2-247.8c0-80.4-78.2-69.1-78.2-28.6c-6.1,64.1-2.2,107.9-6.8,172.1
					c-19.3-3.2-38.6-7.7-57.9-11.7c0,1.5,0,3,0,4.5c0,20.3-0.9,39.9-2.3,59.2C507.5,788.3,519.9,800.8,534.4,800.8z"/>
			</g>
		</g>
		<g>
			<g>
				<path fill="#F9A159" d="M494.2,502.2c-6.1,64.1-2.2,107.9-6.8,172.1c-34.3-5.6-68.4-15.6-103.4-18.9
					c-26.6-37.7-37.9-58.8-90.3-58.8c-8.6,0-15.5,7.3-15.5,16.4c0,14.8,15.4,15.9,18.3,27.2c8.9,34.3,47.9,60,74.6,60
					c2.5,0,4.9-0.6,7.3-1.4c112,61.7,126.4,79.8,143.8,79.8c39.2,0,49-208.8,50.2-247.8C572.4,450.4,494.2,461.7,494.2,502.2z"/>
			</g>
		</g>
		<g>
			<g>
				<path fill="#D63D3E" d="M543.3,351.6c-4.9,4.5-10.7,9.6-16.9,15.1c-24.8,21.9-55.7,49.1-69.4,71.6c-0.4,0.7-0.2,1.6,0.5,2.1
					c0.2,0.1,0.5,0.2,0.8,0.2c0.5,0,1-0.3,1.3-0.7c13.4-22.1,44.1-49.1,68.8-70.9c6.2-5.4,12-10.6,16.9-15.1
					c0.6-0.6,0.7-1.5,0.1-2.1C544.9,351.1,543.9,351.1,543.3,351.6z"/>
			</g>
		</g>
		<g>
			<g>
				<path fill="#D63D3E" d="M568.4,363.3c-23.6,20-64.8,50.5-92.1,70.7l-7.9,5.8c-0.7,0.5-0.8,1.4-0.3,2.1c0.3,0.4,0.7,0.6,1.2,0.6
					c0.3,0,0.6-0.1,0.9-0.3l7.9-5.8c27.3-20.2,68.6-50.8,92.3-70.8c0.6-0.5,0.7-1.5,0.2-2.1C570,362.9,569.1,362.8,568.4,363.3z"/>
			</g>
		</g>
		<g>
			<g>
				<path fill="#D63D3E" d="M583.2,368.6c-26.2,19.6-73.3,53.2-103.7,73.1c-0.7,0.5-0.9,1.4-0.4,2.1c0.3,0.4,0.8,0.7,1.3,0.7
					c0.3,0,0.6-0.1,0.8-0.2c30.5-20,77.7-53.6,103.9-73.2c0.7-0.5,0.8-1.4,0.3-2.1C584.8,368.3,583.9,368.1,583.2,368.6z"/>
			</g>
		</g>
		<g>
			<g>
				<path fill="#D63D3E" d="M1103.3,365.7c-73.4,36.9-158.1,56.5-245,56.5c-82,0-163-17.5-234.4-50.5c-0.8-0.3-1.6,0-2,0.7
					c-0.3,0.8,0,1.6,0.7,2c71.8,33.2,153.3,50.8,235.7,50.8c87.3,0,172.5-19.6,246.3-56.8c0.7-0.4,1-1.3,0.7-2
					C1105,365.6,1104.1,365.3,1103.3,365.7z"/>
			</g>
		</g>
		<g>
			<g>
				<path fill="#D63D3E" d="M1091.6,252.9c-54.2,48.2-128,105.6-217.6,121.6c-0.8,0.1-1.4,0.9-1.2,1.7c0.1,0.7,0.8,1.2,1.5,1.2
					c0.1,0,0.2,0,0.3,0c90.3-16.1,164.5-73.8,219-122.3c0.6-0.6,0.7-1.5,0.1-2.1C1093.2,252.4,1092.2,252.4,1091.6,252.9z"/>
			</g>
		</g>
		<g>
			<g>
				<path fill="#EF4345" d="M1198.4,465.5c-73.4,28.4-153.7,43.4-232.2,43.4c-89.5,0-177.1-19.5-253.2-56.3c-0.7-0.4-1.6,0-2,0.7
					c-0.4,0.7,0,1.6,0.7,2c76.6,37,164.6,56.6,254.5,56.6c78.9,0,159.5-15.1,233.3-43.6c0.8-0.3,1.2-1.2,0.9-1.9
					C1200.1,465.6,1199.2,465.2,1198.4,465.5z"/>
			</g>
		</g>
		<g>
			<g>
				<path fill="#EF4345" d="M1165.4,436.9c-56.1,29.3-123,44.2-198.8,44.2c-27.1,0-56-1.9-86.1-5.6c-0.8-0.1-1.6,0.5-1.7,1.3
					c-0.1,0.8,0.5,1.6,1.3,1.7c30.2,3.7,59.3,5.6,86.5,5.6c76.3,0,143.6-15,200.2-44.5c0.7-0.4,1-1.3,0.6-2
					S1166.2,436.5,1165.4,436.9z"/>
			</g>
		</g>
		<g>
			<g>
				<path fill="#FEED66" d="M852.8,1414.6c-60.3-119.4-109.9-199.4-149.8-263.7c-35.6-57.3-63.7-102.6-82.8-150.3
					c-19.9-49.8-29.7-102.2-31.7-169.8c0-0.8-0.7-1.5-1.5-1.5c-0.8,0-1.5,0.7-1.5,1.5c2,68,11.8,120.6,31.9,170.8
					c19.2,47.9,47.3,93.3,83,150.8c39.9,64.2,89.5,144.1,149.7,263.5c31.3,62,79.8,108.8,140.5,135.4c0.2,0.1,0.4,0.1,0.6,0.1
					c0.6,0,1.1-0.3,1.4-0.9c0.3-0.8,0-1.6-0.8-2C931.9,1522.2,883.8,1475.9,852.8,1414.6z"/>
			</g>
		</g>
		<g>
			<g>
				<path fill="#FEED66" d="M633.3,1125.6c-0.4-0.7-1.3-1-2-0.6c-0.7,0.4-1,1.3-0.6,2c20.9,36.5,36.7,83,53.4,132.1
					c27.1,79.4,57.8,169.5,118.6,243.9c0.3,0.4,0.7,0.6,1.2,0.6c0.3,0,0.7-0.1,0.9-0.3c0.6-0.5,0.7-1.5,0.2-2.1
					c-60.5-74-91.1-163.8-118-243C670.2,1208.9,654.4,1162.4,633.3,1125.6z"/>
			</g>
		</g>
		<g>
			<g>
				<path fill="#FEED66" d="M520.9,1014.6c-0.4-0.7-1.3-1-2-0.6c-0.7,0.4-1,1.3-0.6,2c30.8,57.2,37,129.5,43.7,206.1
					c5.7,65.8,11.6,133.8,33.8,195.4c0.2,0.6,0.8,1,1.4,1c0.2,0,0.3,0,0.5-0.1c0.8-0.3,1.2-1.1,0.9-1.9
					c-22.1-61.2-28-129-33.7-194.7C558.2,1145,551.9,1072.3,520.9,1014.6z"/>
			</g>
		</g>
		<g>
			<g>
				<path fill="#FEED66" d="M476.5,1130.8c0,99.4,14.4,176.8,45.2,243.7c0.3,0.5,0.8,0.9,1.4,0.9c0.2,0,0.4,0,0.6-0.1
					c0.8-0.3,1.1-1.2,0.7-2c-30.7-66.4-45-143.5-45-242.4c0-44.9,2.8-87.4,4.7-115.4c0.9-13.4,1.5-23,1.5-28
					c0-12.1-1.1-24.5-2.2-36.6c-0.5-5.5-1-11.1-1.4-16.6c-0.1-0.8-0.8-1.4-1.6-1.4c-0.8,0.1-1.4,0.8-1.4,1.6
					c0.4,5.5,0.9,11.1,1.4,16.6c1.1,12,2.2,24.4,2.2,36.3c0,4.8-0.6,14.5-1.5,27.8C479.3,1043.3,476.5,1085.8,476.5,1130.8z"/>
			</g>
		</g>
		<g>
			<g>
				<path fill="#FEED66" d="M444.8,986.9c-0.8-0.1-1.6,0.4-1.7,1.2c-13,74-19,134.6-19,190.7c0,63.6,7.8,120.3,23.9,173.3
					c0.2,0.6,0.8,1.1,1.4,1.1c0.1,0,0.3,0,0.4-0.1c0.8-0.2,1.2-1.1,1-1.9c-16-52.7-23.8-109.1-23.8-172.4c0-55.9,6-116.3,18.9-190.2
					C446.2,987.8,445.6,987,444.8,986.9z"/>
			</g>
		</g>
	</g>
</g>
</svg>
